<svg width="244" height="71" viewBox="0 0 244 71" fill="none" xmlns="http://www.w3.org/2000/svg">
<path d="M52.7844 28.6512C57.3217 44.4749 51.023 60.1634 38.7156 63.6925C26.4083 67.2216 12.753 57.2548 8.21564 41.4311C3.67827 25.6074 9.97706 9.91891 22.2844 6.38984C34.5917 2.86078 48.247 12.8275 52.7844 28.6512Z" fill="#FDCEA6"/>
<ellipse cx="91.5" cy="35.0412" rx="23.1824" ry="29.806" transform="rotate(-16 91.5 35.0412)" fill="#00592F"/>
<ellipse cx="152.5" cy="35.0412" rx="23.1824" ry="29.806" transform="rotate(-16 152.5 35.0412)" fill="#FFBF1E"/>
<ellipse cx="213.5" cy="35.0412" rx="23.1824" ry="29.806" transform="rotate(-16 213.5 35.0412)" fill="#6F0D13"/>
<path d="M47.5784 31.1582C50.8969 42.7312 46.2902 54.2054 37.2889 56.7864C28.2877 59.3675 18.3006 52.0781 14.982 40.5051C11.6635 28.9321 16.2703 17.4579 25.2715 14.8769C34.2728 12.2958 44.2599 19.5852 47.5784 31.1582Z" fill="#C04B26"/>
<path d="M107.19 31.1582C110.509 42.7312 105.902 54.2054 96.9009 56.7864C87.8996 59.3675 77.9125 52.0781 74.594 40.5051C71.2755 28.9321 75.8822 17.4579 84.8835 14.8769C93.8847 12.2958 103.872 19.5852 107.19 31.1582Z" fill="#FFE866"/>
<path d="M168.346 31.1582C171.665 42.7312 167.058 54.2054 158.057 56.7864C149.056 59.3675 139.068 52.0781 135.75 40.5051C132.431 28.9321 137.038 17.4579 146.039 14.8769C155.041 12.2958 165.028 19.5852 168.346 31.1582Z" fill="#00592F"/>
<path d="M229.726 31.1582C233.044 42.7312 228.438 54.2054 219.436 56.7864C210.435 59.3675 200.448 52.0781 197.13 40.5051C193.811 28.9321 198.418 17.4579 207.419 14.8769C216.42 12.2958 226.407 19.5852 229.726 31.1582Z" fill="#FFBF1E"/>
</svg>
