<svg width="615" height="35" viewBox="0 0 615 35" fill="none" xmlns="http://www.w3.org/2000/svg">
<path d="M0.683925 34V0.553999H5.84417V29.0309H28.2052V34H0.683925ZM39.3111 34L55.6518 0.553999H61.6721L77.9173 34H72.2315L61.0032 10.97C60.7165 10.3648 60.4298 9.77554 60.1431 9.20218C59.8565 8.62882 59.5698 8.05546 59.2831 7.4821C59.0283 6.90874 58.7735 6.30353 58.5186 5.66646C58.2638 5.02939 58.009 4.32862 57.7541 3.56414L59.2831 3.51636C58.9964 4.28084 58.7097 4.99754 58.4231 5.66646C58.1682 6.33538 57.8975 6.97245 57.6108 7.57766C57.3241 8.18287 57.0374 8.78809 56.7508 9.3933C56.4641 9.96666 56.1774 10.5559 55.8907 11.1612L44.758 34H39.3111ZM46.4303 26.1641L48.4848 21.195H68.3135L69.1258 26.1641H46.4303ZM106.808 34.4778C104.132 34.4778 101.616 34.0796 99.2585 33.2833C96.9333 32.4551 94.8787 31.2925 93.0949 29.7954C91.343 28.2664 89.9733 26.4508 88.9858 24.3484C87.9984 22.2143 87.5047 19.8571 87.5047 17.277C87.5047 14.8243 88.0143 12.5627 89.0336 10.4922C90.0848 8.42177 91.5023 6.62206 93.286 5.0931C95.0698 3.56414 97.1244 2.38557 99.4497 1.55738C101.775 0.69734 104.228 0.267319 106.808 0.267319C108.974 0.267319 111.044 0.554 113.019 1.12736C114.994 1.66887 116.778 2.36964 118.371 3.22968C119.995 4.05787 121.285 4.93383 122.241 5.85758L119.183 10.2056C118.036 9.24996 116.81 8.40585 115.504 7.67322C114.198 6.94059 112.78 6.36723 111.251 5.95314C109.754 5.53905 108.114 5.332 106.33 5.332C104.642 5.332 102.985 5.61868 101.361 6.19204C99.7682 6.73355 98.3189 7.52988 97.0129 8.58104C95.7069 9.60035 94.6717 10.8586 93.9072 12.3557C93.1427 13.8209 92.7605 15.4614 92.7605 17.277C92.7605 19.2838 93.1586 21.0516 93.955 22.5806C94.7513 24.0777 95.8343 25.3359 97.204 26.3552C98.5737 27.3745 100.119 28.1549 101.839 28.6964C103.559 29.2061 105.343 29.4609 107.19 29.4609C109.101 29.4609 110.805 29.222 112.302 28.7442C113.8 28.2345 115.137 27.6134 116.316 26.8808C117.495 26.1482 118.562 25.4315 119.517 24.7307L122.002 29.0309C121.11 29.7635 119.884 30.5598 118.323 31.4199C116.794 32.2799 115.042 33.0125 113.067 33.6178C111.124 34.1911 109.038 34.4778 106.808 34.4778ZM132.678 34L149.019 0.553999H155.039L171.284 34H165.598L154.37 10.97C154.083 10.3648 153.797 9.77554 153.51 9.20218C153.223 8.62882 152.937 8.05546 152.65 7.4821C152.395 6.90874 152.14 6.30353 151.886 5.66646C151.631 5.02939 151.376 4.32862 151.121 3.56414L152.65 3.51636C152.363 4.28084 152.077 4.99754 151.79 5.66646C151.535 6.33538 151.264 6.97245 150.978 7.57766C150.691 8.18287 150.404 8.78809 150.118 9.3933C149.831 9.96666 149.544 10.5559 149.258 11.1612L138.125 34H132.678ZM139.797 26.1641L141.852 21.195H161.68L162.493 26.1641H139.797ZM198.528 34.4778C196.139 34.4778 193.925 34.2389 191.886 33.7611C189.88 33.2833 188.032 32.5666 186.344 31.611C184.688 30.6554 183.175 29.445 181.805 27.9797L185.054 23.6795C187.124 25.8137 189.227 27.3745 191.361 28.362C193.527 29.3494 195.932 29.8431 198.576 29.8431C200.232 29.8431 201.825 29.652 203.354 29.2698C204.883 28.8557 206.141 28.2505 207.128 27.4541C208.116 26.626 208.609 25.5907 208.609 24.3484C208.609 23.5521 208.339 22.8991 207.797 22.3895C207.256 21.8798 206.539 21.4657 205.647 21.1472C204.787 20.8286 203.847 20.5738 202.828 20.3827C201.809 20.1916 200.821 20.0482 199.866 19.9527C198.942 19.8571 198.162 19.7775 197.524 19.7138C195.39 19.4271 193.447 19.0449 191.695 18.5671C189.975 18.0574 188.494 17.4203 187.252 16.6559C186.041 15.8914 185.102 14.9517 184.433 13.8368C183.796 12.722 183.477 11.4319 183.477 9.96666C183.477 8.40585 183.843 7.02023 184.576 5.8098C185.341 4.56752 186.392 3.53229 187.73 2.7041C189.099 1.84406 190.676 1.19107 192.46 0.745119C194.275 0.299172 196.234 0.076199 198.337 0.076199C200.566 0.076199 202.605 0.299172 204.453 0.745119C206.3 1.19107 207.94 1.85999 209.374 2.75188C210.839 3.61192 212.05 4.67901 213.005 5.95314L209.565 9.72776C208.673 8.64475 207.638 7.73693 206.459 7.0043C205.281 6.23982 203.991 5.66646 202.589 5.28422C201.219 4.90198 199.754 4.71086 198.193 4.71086C196.473 4.71086 194.928 4.90198 193.559 5.28422C192.189 5.66646 191.106 6.20797 190.31 6.90874C189.513 7.57766 189.115 8.40585 189.115 9.3933C189.115 10.2533 189.354 10.986 189.832 11.5912C190.342 12.1964 191.042 12.706 191.934 13.1201C192.826 13.5024 193.893 13.8209 195.135 14.0757C196.41 14.3306 197.811 14.5535 199.34 14.7447C201.251 14.9676 203.099 15.2543 204.883 15.6047C206.666 15.9551 208.259 16.4488 209.661 17.0859C211.062 17.6911 212.177 18.5193 213.005 19.5704C213.833 20.6216 214.247 21.9913 214.247 23.6795C214.247 25.8455 213.594 27.7408 212.288 29.3653C210.982 30.9899 209.151 32.2481 206.794 33.14C204.468 34.0319 201.713 34.4778 198.528 34.4778ZM246.67 34.4778C243.707 34.4778 241 34.0478 238.547 33.1877C236.094 32.2958 233.96 31.0695 232.144 29.5087C230.329 27.916 228.927 26.0844 227.94 24.014C226.952 21.9117 226.459 19.666 226.459 17.277C226.459 14.888 226.952 12.6583 227.94 10.5878C228.927 8.48548 230.329 6.65391 232.144 5.0931C233.96 3.50043 236.094 2.27408 238.547 1.41404C241 0.522146 243.707 0.076199 246.67 0.076199C249.6 0.076199 252.292 0.522146 254.744 1.41404C257.197 2.27408 259.331 3.50043 261.147 5.0931C262.963 6.65391 264.364 8.48548 265.352 10.5878C266.371 12.6583 266.88 14.888 266.88 17.277C266.88 19.666 266.371 21.9117 265.352 24.014C264.364 26.0844 262.963 27.916 261.147 29.5087C259.331 31.0695 257.197 32.2958 254.744 33.1877C252.292 34.0478 249.6 34.4778 246.67 34.4778ZM246.67 29.4609C248.867 29.4609 250.874 29.1583 252.69 28.5531C254.505 27.916 256.082 27.056 257.42 25.973C258.758 24.8581 259.793 23.568 260.526 22.1028C261.258 20.6057 261.625 18.9971 261.625 17.277C261.625 15.5569 261.258 13.9643 260.526 12.499C259.793 11.0019 258.758 9.71183 257.42 8.62882C256.082 7.51395 254.505 6.65391 252.69 6.0487C250.874 5.41163 248.867 5.0931 246.67 5.0931C244.472 5.0931 242.449 5.41163 240.601 6.0487C238.786 6.65391 237.209 7.51395 235.871 8.62882C234.533 9.71183 233.498 11.0019 232.766 12.499C232.065 13.9643 231.714 15.5569 231.714 17.277C231.714 18.9971 232.065 20.6057 232.766 22.1028C233.498 23.568 234.533 24.8581 235.871 25.973C237.209 27.056 238.786 27.916 240.601 28.5531C242.449 29.1583 244.472 29.4609 246.67 29.4609ZM281.671 34V0.553999H286.784L313.923 27.9319L313.636 28.362C313.477 27.4064 313.334 26.3871 313.206 25.304C313.111 24.1892 313.031 23.0584 312.967 21.9117C312.904 20.7331 312.84 19.5545 312.776 18.3759C312.744 17.1655 312.712 15.9869 312.681 14.8402C312.681 13.6935 312.681 12.5946 312.681 11.5434V0.553999H317.841V34H312.633L285.828 7.62544L285.876 6.95652C285.94 7.52988 286.003 8.21473 286.067 9.01106C286.131 9.80739 286.21 10.6674 286.306 11.5912C286.402 12.5149 286.481 13.4705 286.545 14.458C286.641 15.4136 286.704 16.3851 286.736 17.3726C286.8 18.3282 286.832 19.236 286.832 20.096V34H281.671ZM330.937 34L347.278 0.553999H353.298L369.543 34H363.857L352.629 10.97C352.342 10.3648 352.056 9.77554 351.769 9.20218C351.482 8.62882 351.196 8.05546 350.909 7.4821C350.654 6.90874 350.399 6.30353 350.145 5.66646C349.89 5.02939 349.635 4.32862 349.38 3.56414L350.909 3.51636C350.622 4.28084 350.336 4.99754 350.049 5.66646C349.794 6.33538 349.523 6.97245 349.237 7.57766C348.95 8.18287 348.663 8.78809 348.377 9.3933C348.09 9.96666 347.803 10.5559 347.517 11.1612L336.384 34H330.937ZM338.056 26.1641L340.111 21.195H359.94L360.752 26.1641H338.056ZM399.007 34.4778C396.363 34.4778 393.847 34.1115 391.458 33.3789C389.069 32.6462 386.951 31.5632 385.103 30.1298C383.256 28.6964 381.79 26.9126 380.707 24.7785C379.656 22.6124 379.131 20.1119 379.131 17.277C379.131 14.888 379.656 12.6583 380.707 10.5878C381.759 8.51733 383.224 6.71762 385.103 5.18866C387.014 3.62785 389.212 2.41742 391.697 1.55738C394.213 0.69734 396.905 0.267319 399.772 0.267319C402.192 0.267319 404.422 0.538073 406.461 1.07958C408.531 1.62109 410.347 2.32186 411.908 3.1819C413.5 4.04194 414.743 4.96569 415.635 5.95314L412.29 9.72776C411.143 8.83587 409.901 8.07139 408.563 7.43432C407.257 6.7654 405.856 6.23982 404.358 5.85758C402.893 5.47534 401.364 5.28422 399.772 5.28422C397.637 5.28422 395.647 5.58683 393.799 6.19204C391.983 6.79725 390.375 7.64137 388.973 8.72438C387.604 9.80739 386.537 11.0815 385.772 12.5468C385.008 13.9802 384.625 15.5569 384.625 17.277C384.625 19.3793 385.024 21.2109 385.82 22.7717C386.648 24.3007 387.763 25.5589 389.164 26.5463C390.566 27.5338 392.143 28.2664 393.895 28.7442C395.678 29.222 397.526 29.4609 399.437 29.4609C401.38 29.4609 403.196 29.2857 404.884 28.9353C406.604 28.5531 408.101 28.0275 409.375 27.3586C410.65 26.6578 411.637 25.8455 412.338 24.9218C413.039 23.9981 413.341 22.9947 413.246 21.9117L413.198 21.2905L413.962 22.3417H399.676V17.3248H418.788C418.852 17.8026 418.9 18.1848 418.931 18.4715C418.963 18.7582 418.979 18.9812 418.979 19.1404C418.979 19.2678 418.979 19.3952 418.979 19.5227C418.979 22.0391 418.485 24.237 417.498 26.1163C416.542 27.9956 415.173 29.5565 413.389 30.7987C411.637 32.0092 409.535 32.9329 407.082 33.57C404.661 34.1752 401.969 34.4778 399.007 34.4778ZM433.41 34V0.553999H452.952C454.927 0.553999 456.727 1.01587 458.351 1.93962C460.008 2.83151 461.33 4.05787 462.317 5.61868C463.305 7.17949 463.798 8.9155 463.798 10.8267C463.798 12.8335 463.257 14.665 462.174 16.3214C461.091 17.9459 459.657 19.2519 457.874 20.2394C456.09 21.195 454.131 21.6728 451.997 21.6728H438.57V34H433.41ZM459.307 34L447.935 18.9015L453.43 17.707L465.757 34.0478L459.307 34ZM438.57 16.7036H451.519C452.729 16.7036 453.844 16.4329 454.863 15.8914C455.915 15.3499 456.743 14.6332 457.348 13.7413C457.985 12.8494 458.304 11.8779 458.304 10.8267C458.304 9.83925 457.985 8.94735 457.348 8.15102C456.743 7.35469 455.915 6.71762 454.863 6.23982C453.844 5.76202 452.729 5.52312 451.519 5.52312H438.57V16.7036ZM498.868 34.4778C495.905 34.4778 493.198 34.0478 490.745 33.1877C488.292 32.2958 486.158 31.0695 484.343 29.5087C482.527 27.916 481.125 26.0844 480.138 24.014C479.15 21.9117 478.657 19.666 478.657 17.277C478.657 14.888 479.15 12.6583 480.138 10.5878C481.125 8.48548 482.527 6.65391 484.343 5.0931C486.158 3.50043 488.292 2.27408 490.745 1.41404C493.198 0.522146 495.905 0.076199 498.868 0.076199C501.798 0.076199 504.49 0.522146 506.942 1.41404C509.395 2.27408 511.529 3.50043 513.345 5.0931C515.161 6.65391 516.562 8.48548 517.55 10.5878C518.569 12.6583 519.079 14.888 519.079 17.277C519.079 19.666 518.569 21.9117 517.55 24.014C516.562 26.0844 515.161 27.916 513.345 29.5087C511.529 31.0695 509.395 32.2958 506.942 33.1877C504.49 34.0478 501.798 34.4778 498.868 34.4778ZM498.868 29.4609C501.066 29.4609 503.072 29.1583 504.888 28.5531C506.704 27.916 508.28 27.056 509.618 25.973C510.956 24.8581 511.991 23.568 512.724 22.1028C513.457 20.6057 513.823 18.9971 513.823 17.277C513.823 15.5569 513.457 13.9643 512.724 12.499C511.991 11.0019 510.956 9.71183 509.618 8.62882C508.28 7.51395 506.704 6.65391 504.888 6.0487C503.072 5.41163 501.066 5.0931 498.868 5.0931C496.67 5.0931 494.647 5.41163 492.8 6.0487C490.984 6.65391 489.407 7.51395 488.069 8.62882C486.732 9.71183 485.696 11.0019 484.964 12.499C484.263 13.9643 483.913 15.5569 483.913 17.277C483.913 18.9971 484.263 20.6057 484.964 22.1028C485.696 23.568 486.732 24.8581 488.069 25.973C489.407 27.056 490.984 27.916 492.8 28.5531C494.647 29.1583 496.67 29.4609 498.868 29.4609ZM550.115 34.2867C546.738 34.2867 543.792 33.5859 541.275 32.1844C538.759 30.751 536.8 28.8079 535.399 26.3552C533.997 23.9025 533.296 21.1153 533.296 17.9937V0.506219H538.456V17.8026C538.456 20.0005 538.966 21.9754 539.985 23.7273C541.037 25.4474 542.438 26.8011 544.19 27.7886C545.974 28.7761 547.949 29.2698 550.115 29.2698C552.408 29.2698 554.447 28.7761 556.231 27.7886C558.014 26.8011 559.416 25.4474 560.435 23.7273C561.486 21.9754 562.012 20.0005 562.012 17.8026V0.506219H566.933V17.9937C566.933 21.1153 566.233 23.9025 564.831 26.3552C563.429 28.8079 561.47 30.751 558.954 32.1844C556.438 33.5859 553.491 34.2867 550.115 34.2867ZM583.749 34V0.553999H603.291C605.266 0.553999 607.066 1.01587 608.69 1.93962C610.347 2.83151 611.669 4.05787 612.656 5.61868C613.644 7.17949 614.137 8.9155 614.137 10.8267C614.137 12.8335 613.596 14.665 612.513 16.3214C611.43 17.9459 609.996 19.2519 608.213 20.2394C606.429 21.195 604.47 21.6728 602.336 21.6728H588.909V34H583.749ZM588.909 16.7036H601.858C603.068 16.7036 604.183 16.4329 605.202 15.8914C606.254 15.3499 607.082 14.6332 607.687 13.7413C608.324 12.8494 608.643 11.8779 608.643 10.8267C608.643 9.83925 608.324 8.94735 607.687 8.15102C607.082 7.35469 606.254 6.71762 605.202 6.23982C604.183 5.76202 603.068 5.52312 601.858 5.52312H588.909V16.7036Z" fill="#281D1B"/>
</svg>
