<svg width="100" height="100" viewBox="0 0 100 100" fill="none" xmlns="http://www.w3.org/2000/svg">
<g clip-path="url(#clip0_4_10)">
<path d="M100 0H0V100H100V0Z" fill="#E9BE5F"/>
<path d="M74.0521 74.1936H67.8268V60.7244C65.0538 60.498 60.4414 60.6678 57.1873 63.2711C54.4709 65.4499 53.1126 69.1285 53.1126 74.1936H46.8874C46.8874 69.1285 45.5009 65.4499 42.8127 63.2711C39.5586 60.6678 34.9745 60.5263 32.1732 60.7244V74.1936H25.9479V55.5178L28.3814 54.9802C28.8342 54.867 39.3888 52.575 46.6893 58.3758C47.9909 59.4228 49.1228 60.6395 50.0283 62.026C50.9338 60.6395 52.0374 59.3945 53.3673 58.3758C60.6678 52.5467 71.2224 54.867 71.6752 54.9802L74.1087 55.5178V74.1936H74.0521Z" fill="#303338"/>
<path d="M66.1008 45.5574C62.3373 45.5574 57.3288 44.8217 53.3107 41.6242C52.0091 40.5773 50.8772 39.3605 49.9717 37.974C49.0662 39.3605 47.9627 40.6055 46.6327 41.6242C39.3322 47.4533 28.7776 45.133 28.3249 45.0198L25.8914 44.4822V25.8064H32.1166V39.2756C34.8897 39.4737 39.502 39.3322 42.7561 36.7289C45.4726 34.5501 46.8308 30.8715 46.8308 25.8064H53.056C53.056 30.8715 54.4426 34.5501 57.1307 36.7289C60.3848 39.3322 64.9689 39.4737 67.7702 39.2756V25.8064H73.9955V44.4822L71.562 45.0198C71.3639 45.0764 69.1285 45.5574 66.0442 45.5574H66.1008Z" fill="#303338"/>
<path d="M50 55.3763C52.9849 55.3763 55.4047 52.9566 55.4047 49.9717C55.4047 46.9868 52.9849 44.5671 50 44.5671C47.0151 44.5671 44.5954 46.9868 44.5954 49.9717C44.5954 52.9566 47.0151 55.3763 50 55.3763Z" fill="#303338"/>
</g>
<defs>
<clipPath id="clip0_4_10">
<rect width="100" height="100" fill="white"/>
</clipPath>
</defs>
</svg>
